<svg width="42" height="42" viewBox="0 0 42 42" fill="none" xmlns="http://www.w3.org/2000/svg">
<rect width="42" height="42" rx="21" fill="#E0E0E0" fill-opacity="0.25"/>
<path d="M22.1669 11.5C22.1669 10.8557 21.6446 10.3334 21.0002 10.3334C20.3559 10.3334 19.8336 10.8557 19.8336 11.5V13.25C19.8336 13.2824 19.8349 13.3144 19.8375 13.3461C16.5249 13.8997 14.0002 16.7789 14.0002 20.2488V24.9167C14.0002 25.5003 13.5218 26.5122 12.9982 27.445C12.2614 28.7574 12.3963 30.3398 13.803 30.8754C15.2177 31.4141 17.4807 31.9167 21.0002 31.9167C24.5198 31.9167 26.7828 31.4141 28.1975 30.8754C29.6041 30.3398 29.7391 28.7574 29.0023 27.445C28.4787 26.5122 28.0002 25.5003 28.0002 24.9167V20.2493C28.0002 16.7795 25.4756 13.8998 22.163 13.3462C22.1656 13.3145 22.1669 13.2824 22.1669 13.25V11.5Z" fill="#BDBDBD"/>
<path d="M17.407 32.8787C17.4506 32.9167 17.5032 32.9611 17.5644 33.0101C17.7397 33.1503 17.9903 33.3321 18.3068 33.513C18.9352 33.8721 19.8642 34.2501 21.0003 34.2501C22.1363 34.2501 23.0653 33.8721 23.6937 33.513C24.0103 33.3321 24.2608 33.1503 24.4361 33.0101C24.4973 32.9611 24.5499 32.9167 24.5935 32.8787C23.5734 33.0057 22.3839 33.0834 21.0003 33.0834C19.6166 33.0834 18.4271 33.0057 17.407 32.8787Z" fill="#BDBDBD"/>
<rect x="22" y="6" width="15" height="16" rx="7.5" fill="#F56630"/>
<path d="M26.5149 16.6506V15.603L29.6009 10.7273H30.4744V12.2188H29.9418L27.8643 15.5107V15.5675H32.1719V16.6506H26.5149ZM29.9844 18V16.331L29.9986 15.8622V10.7273H31.2415V18H29.9844Z" fill="white"/>
</svg>
