<svg width="346" height="38" viewBox="0 0 346 38" fill="none" xmlns="http://www.w3.org/2000/svg">
<rect x="26" width="20" height="20" rx="10" fill="#2381E6"/>
<path d="M2.70037 34V26.7273H5.2927C5.85852 26.7273 6.32727 26.8303 6.69895 27.0362C7.07064 27.2422 7.34881 27.5239 7.53347 27.8814C7.71813 28.2365 7.81046 28.6366 7.81046 29.0817C7.81046 29.5291 7.71695 29.9316 7.52992 30.2891C7.34526 30.6442 7.0659 30.9259 6.69185 31.1342C6.32016 31.3402 5.8526 31.4432 5.28915 31.4432H3.50648V30.5128H5.18972C5.5472 30.5128 5.83721 30.4512 6.05975 30.3281C6.28229 30.2027 6.44564 30.0322 6.5498 29.8168C6.65397 29.6013 6.70605 29.3563 6.70605 29.0817C6.70605 28.8071 6.65397 28.5632 6.5498 28.3501C6.44564 28.1371 6.2811 27.9702 6.0562 27.8494C5.83366 27.7287 5.5401 27.6683 5.17551 27.6683H3.79767V34H2.70037ZM11.7941 34.1101C11.2567 34.1101 10.7939 33.9953 10.4056 33.7656C10.0197 33.5336 9.72144 33.2081 9.51074 32.7891C9.30241 32.3677 9.19824 31.8741 9.19824 31.3082C9.19824 30.7495 9.30241 30.2571 9.51074 29.831C9.72144 29.4048 10.015 29.0722 10.3914 28.8331C10.7702 28.594 11.2129 28.4744 11.7195 28.4744C12.0273 28.4744 12.3256 28.5253 12.6144 28.6271C12.9033 28.7289 13.1625 28.8887 13.3921 29.1065C13.6218 29.3243 13.8029 29.6072 13.9355 29.9553C14.068 30.3009 14.1343 30.7211 14.1343 31.2159V31.5923H9.79838V30.7969H13.0938C13.0938 30.5175 13.037 30.2701 12.9234 30.0547C12.8097 29.8369 12.6499 29.6652 12.444 29.5398C12.2404 29.4143 12.0013 29.3516 11.7267 29.3516C11.4284 29.3516 11.1679 29.425 10.9454 29.5717C10.7252 29.7161 10.5548 29.9055 10.434 30.1399C10.3157 30.3719 10.2565 30.6241 10.2565 30.8963V31.5178C10.2565 31.8823 10.3204 32.1925 10.4482 32.4482C10.5785 32.7038 10.7596 32.8991 10.9916 33.0341C11.2236 33.1667 11.4946 33.233 11.8048 33.233C12.006 33.233 12.1895 33.2045 12.3552 33.1477C12.5209 33.0885 12.6642 33.0009 12.7849 32.8849C12.9056 32.7689 12.998 32.6257 13.0619 32.4553L14.0669 32.6364C13.9864 32.9323 13.8419 33.1915 13.6336 33.4141C13.4276 33.6342 13.1684 33.8059 12.8559 33.929C12.5458 34.0497 12.1919 34.1101 11.7941 34.1101ZM15.8124 34V28.5455H16.8387V29.4119H16.8955C16.9949 29.1184 17.1701 28.8875 17.4211 28.7195C17.6744 28.549 17.9608 28.4638 18.2805 28.4638C18.3467 28.4638 18.4249 28.4661 18.5148 28.4709C18.6072 28.4756 18.6794 28.4815 18.7314 28.4886V29.5043C18.6888 29.4924 18.6131 29.4794 18.5042 29.4652C18.3953 29.4486 18.2864 29.4403 18.1775 29.4403C17.9265 29.4403 17.7028 29.4936 17.5063 29.6001C17.3122 29.7043 17.1583 29.8499 17.0447 30.0369C16.931 30.2216 16.8742 30.4323 16.8742 30.669V34H15.8124ZM24.2377 29.8771L23.2753 30.0476C23.2351 29.9245 23.1711 29.8073 23.0835 29.696C22.9983 29.5848 22.8823 29.4936 22.7355 29.4226C22.5887 29.3516 22.4053 29.3161 22.1851 29.3161C21.8844 29.3161 21.6335 29.3835 21.4323 29.5185C21.231 29.651 21.1304 29.8227 21.1304 30.0334C21.1304 30.2157 21.1979 30.3625 21.3328 30.4737C21.4678 30.585 21.6856 30.6761 21.9862 30.7472L22.8527 30.946C23.3546 31.062 23.7287 31.2408 23.9749 31.4822C24.2211 31.7237 24.3442 32.0374 24.3442 32.4233C24.3442 32.75 24.2495 33.0412 24.0601 33.2969C23.8731 33.5502 23.6115 33.7491 23.2753 33.8935C22.9415 34.0379 22.5544 34.1101 22.1141 34.1101C21.5033 34.1101 21.0049 33.9799 20.6191 33.7195C20.2332 33.4567 19.9964 33.0838 19.9088 32.6009L20.9351 32.4446C20.999 32.7121 21.1304 32.9145 21.3293 33.0518C21.5281 33.1868 21.7874 33.2543 22.107 33.2543C22.455 33.2543 22.7332 33.1821 22.9415 33.0376C23.1498 32.8909 23.254 32.7121 23.254 32.5014C23.254 32.331 23.1901 32.1877 23.0622 32.0717C22.9368 31.9557 22.7438 31.8681 22.4834 31.8089L21.5601 31.6065C21.0511 31.4905 20.6747 31.3059 20.4308 31.0526C20.1894 30.7992 20.0686 30.4785 20.0686 30.0902C20.0686 29.7682 20.1586 29.4865 20.3385 29.245C20.5184 29.0036 20.767 28.8153 21.0843 28.6804C21.4015 28.5431 21.7649 28.4744 22.1744 28.4744C22.7639 28.4744 23.228 28.6023 23.5665 28.858C23.905 29.1113 24.1288 29.451 24.2377 29.8771ZM28.3092 34.1101C27.7979 34.1101 27.3516 33.9929 26.9704 33.7585C26.5893 33.5241 26.2934 33.1963 26.0827 32.7749C25.872 32.3535 25.7666 31.861 25.7666 31.2976C25.7666 30.7318 25.872 30.237 26.0827 29.8132C26.2934 29.3894 26.5893 29.0604 26.9704 28.826C27.3516 28.5916 27.7979 28.4744 28.3092 28.4744C28.8206 28.4744 29.2668 28.5916 29.648 28.826C30.0291 29.0604 30.3251 29.3894 30.5358 29.8132C30.7465 30.237 30.8518 30.7318 30.8518 31.2976C30.8518 31.861 30.7465 32.3535 30.5358 32.7749C30.3251 33.1963 30.0291 33.5241 29.648 33.7585C29.2668 33.9929 28.8206 34.1101 28.3092 34.1101ZM28.3128 33.2188C28.6442 33.2188 28.9188 33.1312 29.1366 32.956C29.3544 32.7808 29.5154 32.5476 29.6196 32.2564C29.7261 31.9652 29.7794 31.6444 29.7794 31.294C29.7794 30.946 29.7261 30.6264 29.6196 30.3352C29.5154 30.0417 29.3544 29.8061 29.1366 29.6286C28.9188 29.451 28.6442 29.3622 28.3128 29.3622C27.979 29.3622 27.702 29.451 27.4818 29.6286C27.264 29.8061 27.1018 30.0417 26.9953 30.3352C26.8911 30.6264 26.839 30.946 26.839 31.294C26.839 31.6444 26.8911 31.9652 26.9953 32.2564C27.1018 32.5476 27.264 32.7808 27.4818 32.956C27.702 33.1312 27.979 33.2188 28.3128 33.2188ZM33.5988 30.7614V34H32.537V28.5455H33.5562V29.4332H33.6237C33.7491 29.1444 33.9456 28.9124 34.2132 28.7372C34.483 28.562 34.8228 28.4744 35.2323 28.4744C35.604 28.4744 35.9295 28.5526 36.2089 28.7088C36.4883 28.8627 36.7049 29.0923 36.8588 29.3977C37.0126 29.7031 37.0896 30.0807 37.0896 30.5305V34H36.0278V30.6584C36.0278 30.263 35.9248 29.9541 35.7188 29.7315C35.5129 29.5066 35.23 29.3942 34.8701 29.3942C34.6239 29.3942 34.4049 29.4474 34.2132 29.554C34.0238 29.6605 33.8734 29.8168 33.7622 30.0227C33.6533 30.2263 33.5988 30.4725 33.5988 30.7614ZM40.6009 34.1207C40.2553 34.1207 39.9428 34.0568 39.6634 33.929C39.3841 33.7988 39.1627 33.6106 38.9994 33.3643C38.8384 33.1181 38.7579 32.8163 38.7579 32.4588C38.7579 32.151 38.8171 31.8977 38.9355 31.6989C39.0538 31.5 39.2136 31.3426 39.4149 31.2266C39.6161 31.1106 39.841 31.023 40.0896 30.9638C40.3382 30.9046 40.5915 30.8596 40.8495 30.8288C41.1762 30.791 41.4414 30.7602 41.645 30.7365C41.8486 30.7105 41.9965 30.669 42.0889 30.6122C42.1812 30.5554 42.2274 30.4631 42.2274 30.3352V30.3104C42.2274 30.0002 42.1398 29.7599 41.9646 29.5895C41.7918 29.419 41.5337 29.3338 41.1904 29.3338C40.8329 29.3338 40.5512 29.4131 40.3453 29.5717C40.1417 29.728 40.0008 29.902 39.9227 30.0938L38.9248 29.8665C39.0432 29.535 39.216 29.2675 39.4433 29.0639C39.6729 28.858 39.9369 28.7088 40.2352 28.6165C40.5335 28.5218 40.8472 28.4744 41.1762 28.4744C41.394 28.4744 41.6249 28.5005 41.8687 28.5526C42.1149 28.6023 42.3445 28.6946 42.5576 28.8295C42.7731 28.9645 42.9494 29.1574 43.0867 29.4084C43.224 29.657 43.2927 29.9801 43.2927 30.3778V34H42.2558V33.2543H42.2132C42.1445 33.3916 42.0415 33.5265 41.9042 33.6591C41.7669 33.7917 41.5905 33.9018 41.3751 33.9893C41.1597 34.0769 40.9016 34.1207 40.6009 34.1207ZM40.8318 33.2685C41.1253 33.2685 41.3763 33.2105 41.5846 33.0945C41.7953 32.9785 41.9551 32.8269 42.064 32.6399C42.1753 32.4505 42.2309 32.2481 42.2309 32.0327V31.3295C42.193 31.3674 42.1196 31.4029 42.0107 31.4361C41.9042 31.4669 41.7823 31.4941 41.645 31.5178C41.5077 31.5391 41.3739 31.5592 41.2437 31.5781C41.1135 31.5947 41.0046 31.6089 40.917 31.6207C40.711 31.6468 40.5228 31.6906 40.3524 31.7521C40.1843 31.8137 40.0493 31.9025 39.9475 32.0185C39.8481 32.1321 39.7984 32.2836 39.7984 32.473C39.7984 32.7358 39.8954 32.9347 40.0896 33.0696C40.2837 33.2022 40.5311 33.2685 40.8318 33.2685ZM46.2687 26.7273V34H45.2069V26.7273H46.2687ZM51.3437 34V28.5455H52.4055V34H51.3437ZM51.8799 27.7038C51.6952 27.7038 51.5366 27.6423 51.404 27.5192C51.2738 27.3937 51.2087 27.2446 51.2087 27.0717C51.2087 26.8965 51.2738 26.7474 51.404 26.6243C51.5366 26.4988 51.6952 26.4361 51.8799 26.4361C52.0645 26.4361 52.222 26.4988 52.3522 26.6243C52.4848 26.7474 52.551 26.8965 52.551 27.0717C52.551 27.2446 52.4848 27.3937 52.3522 27.5192C52.222 27.6423 52.0645 27.7038 51.8799 27.7038ZM55.3957 30.7614V34H54.3339V28.5455H55.3531V29.4332H55.4205C55.546 29.1444 55.7425 28.9124 56.01 28.7372C56.2799 28.562 56.6196 28.4744 57.0292 28.4744C57.4009 28.4744 57.7264 28.5526 58.0058 28.7088C58.2851 28.8627 58.5017 29.0923 58.6556 29.3977C58.8095 29.7031 58.8865 30.0807 58.8865 30.5305V34H57.8247V30.6584C57.8247 30.263 57.7217 29.9541 57.5157 29.7315C57.3097 29.5066 57.0268 29.3942 56.667 29.3942C56.4208 29.3942 56.2018 29.4474 56.01 29.554C55.8206 29.6605 55.6703 29.8168 55.559 30.0227C55.4501 30.2263 55.3957 30.4725 55.3957 30.7614ZM63.4063 28.5455V29.3977H60.324V28.5455H63.4063ZM61.1691 34V27.9134C61.1691 27.5724 61.2437 27.2895 61.3928 27.0646C61.542 26.8374 61.7397 26.6681 61.9859 26.5568C62.2321 26.4432 62.4996 26.3864 62.7884 26.3864C63.0015 26.3864 63.1838 26.4041 63.3353 26.4396C63.4868 26.4728 63.5993 26.5036 63.6727 26.532L63.4241 27.3913C63.3744 27.3771 63.3105 27.3606 63.2323 27.3416C63.1542 27.3203 63.0595 27.3097 62.9482 27.3097C62.6902 27.3097 62.5055 27.3736 62.3943 27.5014C62.2854 27.6293 62.2309 27.8139 62.2309 28.0554V34H61.1691ZM67.0846 34.1101C66.5732 34.1101 66.127 33.9929 65.7458 33.7585C65.3647 33.5241 65.0687 33.1963 64.858 32.7749C64.6473 32.3535 64.542 31.861 64.542 31.2976C64.542 30.7318 64.6473 30.237 64.858 29.8132C65.0687 29.3894 65.3647 29.0604 65.7458 28.826C66.127 28.5916 66.5732 28.4744 67.0846 28.4744C67.596 28.4744 68.0422 28.5916 68.4234 28.826C68.8045 29.0604 69.1005 29.3894 69.3112 29.8132C69.5219 30.237 69.6272 30.7318 69.6272 31.2976C69.6272 31.861 69.5219 32.3535 69.3112 32.7749C69.1005 33.1963 68.8045 33.5241 68.4234 33.7585C68.0422 33.9929 67.596 34.1101 67.0846 34.1101ZM67.0882 33.2188C67.4196 33.2188 67.6942 33.1312 67.912 32.956C68.1298 32.7808 68.2908 32.5476 68.395 32.2564C68.5015 31.9652 68.5548 31.6444 68.5548 31.294C68.5548 30.946 68.5015 30.6264 68.395 30.3352C68.2908 30.0417 68.1298 29.8061 67.912 29.6286C67.6942 29.451 67.4196 29.3622 67.0882 29.3622C66.7544 29.3622 66.4774 29.451 66.2572 29.6286C66.0394 29.8061 65.8772 30.0417 65.7707 30.3352C65.6665 30.6264 65.6144 30.946 65.6144 31.294C65.6144 31.6444 65.6665 31.9652 65.7707 32.2564C65.8772 32.5476 66.0394 32.7808 66.2572 32.956C66.4774 33.1312 66.7544 33.2188 67.0882 33.2188Z" fill="#6F6F6F"/>
<rect width="113" height="1" transform="matrix(1 0 0 -1 45 12)" fill="#2381E5"/>
<rect width="113" height="1" transform="matrix(1 0 0 -1 178 12)" fill="#685F5F"/>
<rect x="158.5" y="0.5" width="19" height="19" rx="9.5" stroke="#685F5F"/>
<path d="M141.761 26.7273H142.862V31.5107C142.862 32.0196 142.742 32.4706 142.503 32.8636C142.264 33.2543 141.928 33.562 141.495 33.7869C141.061 34.0095 140.554 34.1207 139.971 34.1207C139.391 34.1207 138.885 34.0095 138.451 33.7869C138.018 33.562 137.682 33.2543 137.443 32.8636C137.204 32.4706 137.084 32.0196 137.084 31.5107V26.7273H138.181V31.4219C138.181 31.7509 138.254 32.0433 138.398 32.299C138.545 32.5547 138.752 32.7559 139.02 32.9027C139.287 33.0471 139.604 33.1193 139.971 33.1193C140.341 33.1193 140.659 33.0471 140.926 32.9027C141.196 32.7559 141.402 32.5547 141.544 32.299C141.689 32.0433 141.761 31.7509 141.761 31.4219V26.7273ZM148.959 29.8771L147.997 30.0476C147.957 29.9245 147.893 29.8073 147.805 29.696C147.72 29.5848 147.604 29.4936 147.457 29.4226C147.31 29.3516 147.127 29.3161 146.907 29.3161C146.606 29.3161 146.355 29.3835 146.154 29.5185C145.953 29.651 145.852 29.8227 145.852 30.0334C145.852 30.2157 145.92 30.3625 146.055 30.4737C146.189 30.585 146.407 30.6761 146.708 30.7472L147.574 30.946C148.076 31.062 148.45 31.2408 148.697 31.4822C148.943 31.7237 149.066 32.0374 149.066 32.4233C149.066 32.75 148.971 33.0412 148.782 33.2969C148.595 33.5502 148.333 33.7491 147.997 33.8935C147.663 34.0379 147.276 34.1101 146.836 34.1101C146.225 34.1101 145.727 33.9799 145.341 33.7195C144.955 33.4567 144.718 33.0838 144.631 32.6009L145.657 32.4446C145.721 32.7121 145.852 32.9145 146.051 33.0518C146.25 33.1868 146.509 33.2543 146.829 33.2543C147.177 33.2543 147.455 33.1821 147.663 33.0376C147.872 32.8909 147.976 32.7121 147.976 32.5014C147.976 32.331 147.912 32.1877 147.784 32.0717C147.658 31.9557 147.465 31.8681 147.205 31.8089L146.282 31.6065C145.773 31.4905 145.396 31.3059 145.153 31.0526C144.911 30.7992 144.79 30.4785 144.79 30.0902C144.79 29.7682 144.88 29.4865 145.06 29.245C145.24 29.0036 145.489 28.8153 145.806 28.6804C146.123 28.5431 146.487 28.4744 146.896 28.4744C147.486 28.4744 147.95 28.6023 148.288 28.858C148.627 29.1113 148.85 29.451 148.959 29.8771ZM153.084 34.1101C152.547 34.1101 152.084 33.9953 151.696 33.7656C151.31 33.5336 151.011 33.2081 150.801 32.7891C150.592 32.3677 150.488 31.8741 150.488 31.3082C150.488 30.7495 150.592 30.2571 150.801 29.831C151.011 29.4048 151.305 29.0722 151.681 28.8331C152.06 28.594 152.503 28.4744 153.01 28.4744C153.317 28.4744 153.616 28.5253 153.904 28.6271C154.193 28.7289 154.453 28.8887 154.682 29.1065C154.912 29.3243 155.093 29.6072 155.225 29.9553C155.358 30.3009 155.424 30.7211 155.424 31.2159V31.5923H151.088V30.7969H154.384C154.384 30.5175 154.327 30.2701 154.213 30.0547C154.1 29.8369 153.94 29.6652 153.734 29.5398C153.53 29.4143 153.291 29.3516 153.017 29.3516C152.718 29.3516 152.458 29.425 152.235 29.5717C152.015 29.7161 151.845 29.9055 151.724 30.1399C151.606 30.3719 151.547 30.6241 151.547 30.8963V31.5178C151.547 31.8823 151.61 32.1925 151.738 32.4482C151.868 32.7038 152.05 32.8991 152.282 33.0341C152.514 33.1667 152.785 33.233 153.095 33.233C153.296 33.233 153.48 33.2045 153.645 33.1477C153.811 33.0885 153.954 33.0009 154.075 32.8849C154.196 32.7689 154.288 32.6257 154.352 32.4553L155.357 32.6364C155.276 32.9323 155.132 33.1915 154.924 33.4141C154.718 33.6342 154.458 33.8059 154.146 33.929C153.836 34.0497 153.482 34.1101 153.084 34.1101ZM157.102 34V28.5455H158.129V29.4119H158.186C158.285 29.1184 158.46 28.8875 158.711 28.7195C158.964 28.549 159.251 28.4638 159.57 28.4638C159.637 28.4638 159.715 28.4661 159.805 28.4709C159.897 28.4756 159.969 28.4815 160.021 28.4886V29.5043C159.979 29.4924 159.903 29.4794 159.794 29.4652C159.685 29.4486 159.576 29.4403 159.468 29.4403C159.217 29.4403 158.993 29.4936 158.796 29.6001C158.602 29.7043 158.448 29.8499 158.335 30.0369C158.221 30.2216 158.164 30.4323 158.164 30.669V34H157.102ZM167.026 34H164.672V26.7273H167.101C167.814 26.7273 168.426 26.8729 168.937 27.1641C169.448 27.4529 169.84 27.8684 170.112 28.4105C170.387 28.9503 170.524 29.5978 170.524 30.353C170.524 31.1106 170.386 31.7616 170.109 32.3061C169.834 32.8506 169.436 33.2696 168.916 33.5632C168.395 33.8544 167.765 34 167.026 34ZM165.769 33.0412H166.966C167.52 33.0412 167.981 32.937 168.347 32.7287C168.714 32.518 168.989 32.2138 169.171 31.8161C169.354 31.416 169.445 30.9283 169.445 30.353C169.445 29.7824 169.354 29.2983 169.171 28.9006C168.991 28.5028 168.723 28.201 168.365 27.995C168.008 27.7891 167.564 27.6861 167.034 27.6861H165.769V33.0412ZM174.654 34.1101C174.117 34.1101 173.654 33.9953 173.266 33.7656C172.88 33.5336 172.582 33.2081 172.371 32.7891C172.163 32.3677 172.059 31.8741 172.059 31.3082C172.059 30.7495 172.163 30.2571 172.371 29.831C172.582 29.4048 172.875 29.0722 173.252 28.8331C173.631 28.594 174.073 28.4744 174.58 28.4744C174.888 28.4744 175.186 28.5253 175.475 28.6271C175.764 28.7289 176.023 28.8887 176.252 29.1065C176.482 29.3243 176.663 29.6072 176.796 29.9553C176.928 30.3009 176.995 30.7211 176.995 31.2159V31.5923H172.659V30.7969H175.954C175.954 30.5175 175.897 30.2701 175.784 30.0547C175.67 29.8369 175.51 29.6652 175.304 29.5398C175.101 29.4143 174.862 29.3516 174.587 29.3516C174.289 29.3516 174.028 29.425 173.806 29.5717C173.586 29.7161 173.415 29.9055 173.294 30.1399C173.176 30.3719 173.117 30.6241 173.117 30.8963V31.5178C173.117 31.8823 173.181 32.1925 173.309 32.4482C173.439 32.7038 173.62 32.8991 173.852 33.0341C174.084 33.1667 174.355 33.233 174.665 33.233C174.866 33.233 175.05 33.2045 175.216 33.1477C175.381 33.0885 175.525 33.0009 175.645 32.8849C175.766 32.7689 175.858 32.6257 175.922 32.4553L176.927 32.6364C176.847 32.9323 176.702 33.1915 176.494 33.4141C176.288 33.6342 176.029 33.8059 175.716 33.929C175.406 34.0497 175.052 34.1101 174.654 34.1101ZM181.219 28.5455V29.3977H178.24V28.5455H181.219ZM179.039 27.2386H180.1V32.3984C180.1 32.6044 180.131 32.7595 180.193 32.8636C180.254 32.9654 180.334 33.0353 180.431 33.0732C180.53 33.1087 180.638 33.1264 180.754 33.1264C180.839 33.1264 180.914 33.1205 180.977 33.1087C181.041 33.0968 181.091 33.0874 181.127 33.0803L181.318 33.9574C181.257 33.9811 181.169 34.0047 181.056 34.0284C180.942 34.0545 180.8 34.0687 180.629 34.071C180.35 34.0758 180.09 34.026 179.848 33.9219C179.607 33.8177 179.411 33.6567 179.262 33.4389C179.113 33.2211 179.039 32.9477 179.039 32.6186V27.2386ZM184.481 34.1207C184.135 34.1207 183.823 34.0568 183.543 33.929C183.264 33.7988 183.043 33.6106 182.879 33.3643C182.718 33.1181 182.638 32.8163 182.638 32.4588C182.638 32.151 182.697 31.8977 182.815 31.6989C182.934 31.5 183.094 31.3426 183.295 31.2266C183.496 31.1106 183.721 31.023 183.969 30.9638C184.218 30.9046 184.471 30.8596 184.729 30.8288C185.056 30.791 185.321 30.7602 185.525 30.7365C185.728 30.7105 185.876 30.669 185.969 30.6122C186.061 30.5554 186.107 30.4631 186.107 30.3352V30.3104C186.107 30.0002 186.02 29.7599 185.844 29.5895C185.672 29.419 185.414 29.3338 185.07 29.3338C184.713 29.3338 184.431 29.4131 184.225 29.5717C184.022 29.728 183.881 29.902 183.803 30.0938L182.805 29.8665C182.923 29.535 183.096 29.2675 183.323 29.0639C183.553 28.858 183.817 28.7088 184.115 28.6165C184.413 28.5218 184.727 28.4744 185.056 28.4744C185.274 28.4744 185.505 28.5005 185.749 28.5526C185.995 28.6023 186.224 28.6946 186.438 28.8295C186.653 28.9645 186.829 29.1574 186.967 29.4084C187.104 29.657 187.173 29.9801 187.173 30.3778V34H186.136V33.2543H186.093C186.024 33.3916 185.921 33.5265 185.784 33.6591C185.647 33.7917 185.47 33.9018 185.255 33.9893C185.04 34.0769 184.781 34.1207 184.481 34.1207ZM184.712 33.2685C185.005 33.2685 185.256 33.2105 185.464 33.0945C185.675 32.9785 185.835 32.8269 185.944 32.6399C186.055 32.4505 186.111 32.2481 186.111 32.0327V31.3295C186.073 31.3674 186 31.4029 185.891 31.4361C185.784 31.4669 185.662 31.4941 185.525 31.5178C185.388 31.5391 185.254 31.5592 185.124 31.5781C184.993 31.5947 184.884 31.6089 184.797 31.6207C184.591 31.6468 184.403 31.6906 184.232 31.7521C184.064 31.8137 183.929 31.9025 183.827 32.0185C183.728 32.1321 183.678 32.2836 183.678 32.473C183.678 32.7358 183.775 32.9347 183.969 33.0696C184.164 33.2022 184.411 33.2685 184.712 33.2685ZM189.087 34V28.5455H190.149V34H189.087ZM189.623 27.7038C189.438 27.7038 189.28 27.6423 189.147 27.5192C189.017 27.3937 188.952 27.2446 188.952 27.0717C188.952 26.8965 189.017 26.7474 189.147 26.6243C189.28 26.4988 189.438 26.4361 189.623 26.4361C189.808 26.4361 189.965 26.4988 190.095 26.6243C190.228 26.7474 190.294 26.8965 190.294 27.0717C190.294 27.2446 190.228 27.3937 190.095 27.5192C189.965 27.6423 189.808 27.7038 189.623 27.7038ZM193.139 26.7273V34H192.077V26.7273H193.139ZM199.155 29.8771L198.192 30.0476C198.152 29.9245 198.088 29.8073 198.001 29.696C197.915 29.5848 197.799 29.4936 197.653 29.4226C197.506 29.3516 197.322 29.3161 197.102 29.3161C196.801 29.3161 196.55 29.3835 196.349 29.5185C196.148 29.651 196.047 29.8227 196.047 30.0334C196.047 30.2157 196.115 30.3625 196.25 30.4737C196.385 30.585 196.603 30.6761 196.903 30.7472L197.77 30.946C198.272 31.062 198.646 31.2408 198.892 31.4822C199.138 31.7237 199.261 32.0374 199.261 32.4233C199.261 32.75 199.166 33.0412 198.977 33.2969C198.79 33.5502 198.528 33.7491 198.192 33.8935C197.858 34.0379 197.471 34.1101 197.031 34.1101C196.42 34.1101 195.922 33.9799 195.536 33.7195C195.15 33.4567 194.913 33.0838 194.826 32.6009L195.852 32.4446C195.916 32.7121 196.047 32.9145 196.246 33.0518C196.445 33.1868 196.704 33.2543 197.024 33.2543C197.372 33.2543 197.65 33.1821 197.858 33.0376C198.067 32.8909 198.171 32.7121 198.171 32.5014C198.171 32.331 198.107 32.1877 197.979 32.0717C197.854 31.9557 197.661 31.8681 197.4 31.8089L196.477 31.6065C195.968 31.4905 195.592 31.3059 195.348 31.0526C195.106 30.7992 194.986 30.4785 194.986 30.0902C194.986 29.7682 195.076 29.4865 195.256 29.245C195.435 29.0036 195.684 28.8153 196.001 28.6804C196.318 28.5431 196.682 28.4744 197.091 28.4744C197.681 28.4744 198.145 28.6023 198.483 28.858C198.822 29.1113 199.046 29.451 199.155 29.8771Z" fill="#6F6F6F"/>
<rect x="290" y="0.5" width="19" height="19" rx="9.5" stroke="#685F5F"/>
<path d="M262.083 29.0923H260.975C260.932 28.8556 260.853 28.6473 260.737 28.4673C260.621 28.2874 260.479 28.1347 260.311 28.0092C260.143 27.8838 259.954 27.7891 259.746 27.7251C259.54 27.6612 259.321 27.6293 259.089 27.6293C258.67 27.6293 258.295 27.7346 257.963 27.9453C257.634 28.156 257.374 28.465 257.182 28.8722C256.993 29.2794 256.898 29.7765 256.898 30.3636C256.898 30.9555 256.993 31.455 257.182 31.8622C257.374 32.2694 257.635 32.5772 257.967 32.7855C258.298 32.9938 258.671 33.098 259.085 33.098C259.315 33.098 259.533 33.0672 259.739 33.0057C259.947 32.9418 260.135 32.8482 260.304 32.7251C260.472 32.602 260.614 32.4517 260.73 32.2741C260.848 32.0942 260.93 31.8883 260.975 31.6562L262.083 31.6598C262.023 32.0173 261.909 32.3464 261.738 32.647C261.57 32.9453 261.353 33.2034 261.088 33.4212C260.826 33.6366 260.525 33.8035 260.186 33.9219C259.848 34.0402 259.478 34.0994 259.078 34.0994C258.449 34.0994 257.888 33.9503 257.395 33.652C256.903 33.3513 256.514 32.9216 256.23 32.3629C255.949 31.8042 255.808 31.1378 255.808 30.3636C255.808 29.5871 255.95 28.9207 256.234 28.3643C256.518 27.8056 256.906 27.3771 257.399 27.0788C257.891 26.7782 258.451 26.6278 259.078 26.6278C259.464 26.6278 259.824 26.6835 260.158 26.7947C260.494 26.9036 260.796 27.0646 261.063 27.2777C261.331 27.4884 261.552 27.7464 261.728 28.0518C261.903 28.3549 262.021 28.7017 262.083 29.0923ZM263.81 34V28.5455H264.837V29.4119H264.894C264.993 29.1184 265.168 28.8875 265.419 28.7195C265.672 28.549 265.959 28.4638 266.278 28.4638C266.345 28.4638 266.423 28.4661 266.513 28.4709C266.605 28.4756 266.677 28.4815 266.729 28.4886V29.5043C266.687 29.4924 266.611 29.4794 266.502 29.4652C266.393 29.4486 266.284 29.4403 266.176 29.4403C265.925 29.4403 265.701 29.4936 265.504 29.6001C265.31 29.7043 265.156 29.8499 265.043 30.0369C264.929 30.2216 264.872 30.4323 264.872 30.669V34H263.81ZM270.304 34.1101C269.766 34.1101 269.304 33.9953 268.915 33.7656C268.53 33.5336 268.231 33.2081 268.021 32.7891C267.812 32.3677 267.708 31.8741 267.708 31.3082C267.708 30.7495 267.812 30.2571 268.021 29.831C268.231 29.4048 268.525 29.0722 268.901 28.8331C269.28 28.594 269.723 28.4744 270.229 28.4744C270.537 28.4744 270.835 28.5253 271.124 28.6271C271.413 28.7289 271.672 28.8887 271.902 29.1065C272.132 29.3243 272.313 29.6072 272.445 29.9553C272.578 30.3009 272.644 30.7211 272.644 31.2159V31.5923H268.308V30.7969H271.604C271.604 30.5175 271.547 30.2701 271.433 30.0547C271.32 29.8369 271.16 29.6652 270.954 29.5398C270.75 29.4143 270.511 29.3516 270.236 29.3516C269.938 29.3516 269.678 29.425 269.455 29.5717C269.235 29.7161 269.065 29.9055 268.944 30.1399C268.825 30.3719 268.766 30.6241 268.766 30.8963V31.5178C268.766 31.8823 268.83 32.1925 268.958 32.4482C269.088 32.7038 269.269 32.8991 269.501 33.0341C269.733 33.1667 270.004 33.233 270.315 33.233C270.516 33.233 270.699 33.2045 270.865 33.1477C271.031 33.0885 271.174 33.0009 271.295 32.8849C271.415 32.7689 271.508 32.6257 271.572 32.4553L272.577 32.6364C272.496 32.9323 272.352 33.1915 272.143 33.4141C271.937 33.6342 271.678 33.8059 271.366 33.929C271.056 34.0497 270.702 34.1101 270.304 34.1101ZM275.91 34.1207C275.564 34.1207 275.251 34.0568 274.972 33.929C274.693 33.7988 274.471 33.6106 274.308 33.3643C274.147 33.1181 274.066 32.8163 274.066 32.4588C274.066 32.151 274.126 31.8977 274.244 31.6989C274.362 31.5 274.522 31.3426 274.723 31.2266C274.925 31.1106 275.15 31.023 275.398 30.9638C275.647 30.9046 275.9 30.8596 276.158 30.8288C276.485 30.791 276.75 30.7602 276.954 30.7365C277.157 30.7105 277.305 30.669 277.397 30.6122C277.49 30.5554 277.536 30.4631 277.536 30.3352V30.3104C277.536 30.0002 277.448 29.7599 277.273 29.5895C277.1 29.419 276.842 29.3338 276.499 29.3338C276.142 29.3338 275.86 29.4131 275.654 29.5717C275.45 29.728 275.309 29.902 275.231 30.0938L274.233 29.8665C274.352 29.535 274.525 29.2675 274.752 29.0639C274.982 28.858 275.245 28.7088 275.544 28.6165C275.842 28.5218 276.156 28.4744 276.485 28.4744C276.703 28.4744 276.933 28.5005 277.177 28.5526C277.424 28.6023 277.653 28.6946 277.866 28.8295C278.082 28.9645 278.258 29.1574 278.395 29.4084C278.533 29.657 278.601 29.9801 278.601 30.3778V34H277.564V33.2543H277.522C277.453 33.3916 277.35 33.5265 277.213 33.6591C277.075 33.7917 276.899 33.9018 276.684 33.9893C276.468 34.0769 276.21 34.1207 275.91 34.1207ZM276.14 33.2685C276.434 33.2685 276.685 33.2105 276.893 33.0945C277.104 32.9785 277.264 32.8269 277.373 32.6399C277.484 32.4505 277.54 32.2481 277.54 32.0327V31.3295C277.502 31.3674 277.428 31.4029 277.319 31.4361C277.213 31.4669 277.091 31.4941 276.954 31.5178C276.816 31.5391 276.682 31.5592 276.552 31.5781C276.422 31.5947 276.313 31.6089 276.226 31.6207C276.02 31.6468 275.831 31.6906 275.661 31.7521C275.493 31.8137 275.358 31.9025 275.256 32.0185C275.157 32.1321 275.107 32.2836 275.107 32.473C275.107 32.7358 275.204 32.9347 275.398 33.0696C275.592 33.2022 275.84 33.2685 276.14 33.2685ZM283.062 28.5455V29.3977H280.082V28.5455H283.062ZM280.881 27.2386H281.943V32.3984C281.943 32.6044 281.974 32.7595 282.035 32.8636C282.097 32.9654 282.176 33.0353 282.273 33.0732C282.373 33.1087 282.48 33.1264 282.597 33.1264C282.682 33.1264 282.756 33.1205 282.82 33.1087C282.884 33.0968 282.934 33.0874 282.969 33.0803L283.161 33.9574C283.1 33.9811 283.012 34.0047 282.898 34.0284C282.785 34.0545 282.643 34.0687 282.472 34.071C282.193 34.0758 281.932 34.026 281.691 33.9219C281.449 33.8177 281.254 33.6567 281.105 33.4389C280.956 33.2211 280.881 32.9477 280.881 32.6186V27.2386ZM287.028 34.1101C286.491 34.1101 286.028 33.9953 285.64 33.7656C285.254 33.5336 284.956 33.2081 284.745 32.7891C284.537 32.3677 284.433 31.8741 284.433 31.3082C284.433 30.7495 284.537 30.2571 284.745 29.831C284.956 29.4048 285.249 29.0722 285.626 28.8331C286.005 28.594 286.447 28.4744 286.954 28.4744C287.262 28.4744 287.56 28.5253 287.849 28.6271C288.138 28.7289 288.397 28.8887 288.627 29.1065C288.856 29.3243 289.037 29.6072 289.17 29.9553C289.302 30.3009 289.369 30.7211 289.369 31.2159V31.5923H285.033V30.7969H288.328C288.328 30.5175 288.271 30.2701 288.158 30.0547C288.044 29.8369 287.884 29.6652 287.678 29.5398C287.475 29.4143 287.236 29.3516 286.961 29.3516C286.663 29.3516 286.402 29.425 286.18 29.5717C285.96 29.7161 285.789 29.9055 285.668 30.1399C285.55 30.3719 285.491 30.6241 285.491 30.8963V31.5178C285.491 31.8823 285.555 32.1925 285.683 32.4482C285.813 32.7038 285.994 32.8991 286.226 33.0341C286.458 33.1667 286.729 33.233 287.039 33.233C287.24 33.233 287.424 33.2045 287.59 33.1477C287.755 33.0885 287.899 33.0009 288.019 32.8849C288.14 32.7689 288.232 32.6257 288.296 32.4553L289.301 32.6364C289.221 32.9323 289.076 33.1915 288.868 33.4141C288.662 33.6342 288.403 33.8059 288.09 33.929C287.78 34.0497 287.426 34.1101 287.028 34.1101ZM294.278 34V26.7273H296.871C297.437 26.7273 297.905 26.8303 298.277 27.0362C298.649 27.2422 298.927 27.5239 299.112 27.8814C299.296 28.2365 299.389 28.6366 299.389 29.0817C299.389 29.5291 299.295 29.9316 299.108 30.2891C298.923 30.6442 298.644 30.9259 298.27 31.1342C297.898 31.3402 297.431 31.4432 296.867 31.4432H295.085V30.5128H296.768C297.125 30.5128 297.415 30.4512 297.638 30.3281C297.86 30.2027 298.024 30.0322 298.128 29.8168C298.232 29.6013 298.284 29.3563 298.284 29.0817C298.284 28.8071 298.232 28.5632 298.128 28.3501C298.024 28.1371 297.859 27.9702 297.634 27.8494C297.412 27.7287 297.118 27.6683 296.754 27.6683H295.376V34H294.278ZM302.628 34.1207C302.283 34.1207 301.97 34.0568 301.691 33.929C301.411 33.7988 301.19 33.6106 301.027 33.3643C300.866 33.1181 300.785 32.8163 300.785 32.4588C300.785 32.151 300.844 31.8977 300.963 31.6989C301.081 31.5 301.241 31.3426 301.442 31.2266C301.643 31.1106 301.868 31.023 302.117 30.9638C302.366 30.9046 302.619 30.8596 302.877 30.8288C303.204 30.791 303.469 30.7602 303.672 30.7365C303.876 30.7105 304.024 30.669 304.116 30.6122C304.209 30.5554 304.255 30.4631 304.255 30.3352V30.3104C304.255 30.0002 304.167 29.7599 303.992 29.5895C303.819 29.419 303.561 29.3338 303.218 29.3338C302.86 29.3338 302.579 29.4131 302.373 29.5717C302.169 29.728 302.028 29.902 301.95 30.0938L300.952 29.8665C301.071 29.535 301.243 29.2675 301.471 29.0639C301.7 28.858 301.964 28.7088 302.263 28.6165C302.561 28.5218 302.874 28.4744 303.204 28.4744C303.421 28.4744 303.652 28.5005 303.896 28.5526C304.142 28.6023 304.372 28.6946 304.585 28.8295C304.8 28.9645 304.977 29.1574 305.114 29.4084C305.251 29.657 305.32 29.9801 305.32 30.3778V34H304.283V33.2543H304.241C304.172 33.3916 304.069 33.5265 303.932 33.6591C303.794 33.7917 303.618 33.9018 303.402 33.9893C303.187 34.0769 302.929 34.1207 302.628 34.1207ZM302.859 33.2685C303.153 33.2685 303.404 33.2105 303.612 33.0945C303.823 32.9785 303.982 32.8269 304.091 32.6399C304.203 32.4505 304.258 32.2481 304.258 32.0327V31.3295C304.22 31.3674 304.147 31.4029 304.038 31.4361C303.932 31.4669 303.81 31.4941 303.672 31.5178C303.535 31.5391 303.401 31.5592 303.271 31.5781C303.141 31.5947 303.032 31.6089 302.944 31.6207C302.738 31.6468 302.55 31.6906 302.38 31.7521C302.212 31.8137 302.077 31.9025 301.975 32.0185C301.875 32.1321 301.826 32.2836 301.826 32.473C301.826 32.7358 301.923 32.9347 302.117 33.0696C302.311 33.2022 302.558 33.2685 302.859 33.2685ZM311.322 29.8771L310.359 30.0476C310.319 29.9245 310.255 29.8073 310.168 29.696C310.082 29.5848 309.966 29.4936 309.82 29.4226C309.673 29.3516 309.489 29.3161 309.269 29.3161C308.968 29.3161 308.717 29.3835 308.516 29.5185C308.315 29.651 308.214 29.8227 308.214 30.0334C308.214 30.2157 308.282 30.3625 308.417 30.4737C308.552 30.585 308.77 30.6761 309.07 30.7472L309.937 30.946C310.439 31.062 310.813 31.2408 311.059 31.4822C311.305 31.7237 311.428 32.0374 311.428 32.4233C311.428 32.75 311.333 33.0412 311.144 33.2969C310.957 33.5502 310.695 33.7491 310.359 33.8935C310.025 34.0379 309.638 34.1101 309.198 34.1101C308.587 34.1101 308.089 33.9799 307.703 33.7195C307.317 33.4567 307.08 33.0838 306.993 32.6009L308.019 32.4446C308.083 32.7121 308.214 32.9145 308.413 33.0518C308.612 33.1868 308.871 33.2543 309.191 33.2543C309.539 33.2543 309.817 33.1821 310.025 33.0376C310.234 32.8909 310.338 32.7121 310.338 32.5014C310.338 32.331 310.274 32.1877 310.146 32.0717C310.021 31.9557 309.828 31.8681 309.567 31.8089L308.644 31.6065C308.135 31.4905 307.759 31.3059 307.515 31.0526C307.273 30.7992 307.153 30.4785 307.153 30.0902C307.153 29.7682 307.243 29.4865 307.422 29.245C307.602 29.0036 307.851 28.8153 308.168 28.6804C308.485 28.5431 308.849 28.4744 309.258 28.4744C309.848 28.4744 310.312 28.6023 310.65 28.858C310.989 29.1113 311.213 29.451 311.322 29.8771ZM317.183 29.8771L316.221 30.0476C316.18 29.9245 316.116 29.8073 316.029 29.696C315.944 29.5848 315.828 29.4936 315.681 29.4226C315.534 29.3516 315.351 29.3161 315.13 29.3161C314.83 29.3161 314.579 29.3835 314.378 29.5185C314.176 29.651 314.076 29.8227 314.076 30.0334C314.076 30.2157 314.143 30.3625 314.278 30.4737C314.413 30.585 314.631 30.6761 314.932 30.7472L315.798 30.946C316.3 31.062 316.674 31.2408 316.92 31.4822C317.166 31.7237 317.29 32.0374 317.29 32.4233C317.29 32.75 317.195 33.0412 317.005 33.2969C316.818 33.5502 316.557 33.7491 316.221 33.8935C315.887 34.0379 315.5 34.1101 315.059 34.1101C314.449 34.1101 313.95 33.9799 313.564 33.7195C313.178 33.4567 312.942 33.0838 312.854 32.6009L313.88 32.4446C313.944 32.7121 314.076 32.9145 314.275 33.0518C314.473 33.1868 314.733 33.2543 315.052 33.2543C315.4 33.2543 315.678 33.1821 315.887 33.0376C316.095 32.8909 316.199 32.7121 316.199 32.5014C316.199 32.331 316.135 32.1877 316.008 32.0717C315.882 31.9557 315.689 31.8681 315.429 31.8089L314.505 31.6065C313.996 31.4905 313.62 31.3059 313.376 31.0526C313.135 30.7992 313.014 30.4785 313.014 30.0902C313.014 29.7682 313.104 29.4865 313.284 29.245C313.464 29.0036 313.712 28.8153 314.03 28.6804C314.347 28.5431 314.71 28.4744 315.12 28.4744C315.709 28.4744 316.173 28.6023 316.512 28.858C316.85 29.1113 317.074 29.451 317.183 29.8771ZM320.139 34L318.534 28.5455H319.632L320.701 32.5511H320.754L321.826 28.5455H322.924L323.989 32.5334H324.042L325.104 28.5455H326.201L324.6 34H323.517L322.409 30.0618H322.327L321.219 34H320.139ZM329.84 34.1101C329.329 34.1101 328.883 33.9929 328.502 33.7585C328.121 33.5241 327.825 33.1963 327.614 32.7749C327.403 32.3535 327.298 31.861 327.298 31.2976C327.298 30.7318 327.403 30.237 327.614 29.8132C327.825 29.3894 328.121 29.0604 328.502 28.826C328.883 28.5916 329.329 28.4744 329.84 28.4744C330.352 28.4744 330.798 28.5916 331.179 28.826C331.56 29.0604 331.856 29.3894 332.067 29.8132C332.278 30.237 332.383 30.7318 332.383 31.2976C332.383 31.861 332.278 32.3535 332.067 32.7749C331.856 33.1963 331.56 33.5241 331.179 33.7585C330.798 33.9929 330.352 34.1101 329.84 34.1101ZM329.844 33.2188C330.175 33.2188 330.45 33.1312 330.668 32.956C330.886 32.7808 331.047 32.5476 331.151 32.2564C331.257 31.9652 331.311 31.6444 331.311 31.294C331.311 30.946 331.257 30.6264 331.151 30.3352C331.047 30.0417 330.886 29.8061 330.668 29.6286C330.45 29.451 330.175 29.3622 329.844 29.3622C329.51 29.3622 329.233 29.451 329.013 29.6286C328.795 29.8061 328.633 30.0417 328.527 30.3352C328.422 30.6264 328.37 30.946 328.37 31.294C328.37 31.6444 328.422 31.9652 328.527 32.2564C328.633 32.5476 328.795 32.7808 329.013 32.956C329.233 33.1312 329.51 33.2188 329.844 33.2188ZM334.068 34V28.5455H335.095V29.4119H335.151C335.251 29.1184 335.426 28.8875 335.677 28.7195C335.93 28.549 336.217 28.4638 336.536 28.4638C336.603 28.4638 336.681 28.4661 336.771 28.4709C336.863 28.4756 336.935 28.4815 336.987 28.4886V29.5043C336.945 29.4924 336.869 29.4794 336.76 29.4652C336.651 29.4486 336.542 29.4403 336.433 29.4403C336.182 29.4403 335.959 29.4936 335.762 29.6001C335.568 29.7043 335.414 29.8499 335.301 30.0369C335.187 30.2216 335.13 30.4323 335.13 30.669V34H334.068ZM340.253 34.1065C339.812 34.1065 339.419 33.9941 339.074 33.7692C338.73 33.5419 338.461 33.2187 338.264 32.7997C338.07 32.3783 337.973 31.8729 337.973 31.2834C337.973 30.6939 338.071 30.1896 338.268 29.7706C338.467 29.3516 338.739 29.0308 339.084 28.8082C339.43 28.5857 339.822 28.4744 340.26 28.4744C340.598 28.4744 340.871 28.5312 341.077 28.6449C341.285 28.7562 341.446 28.8864 341.56 29.0355C341.676 29.1847 341.766 29.3161 341.829 29.4297H341.893V26.7273H342.955V34H341.918V33.1513H341.829C341.766 33.2673 341.673 33.3999 341.552 33.549C341.434 33.6982 341.271 33.8284 341.062 33.9396C340.854 34.0509 340.584 34.1065 340.253 34.1065ZM340.487 33.201C340.793 33.201 341.051 33.1205 341.261 32.9595C341.474 32.7962 341.635 32.5701 341.744 32.2812C341.855 31.9924 341.911 31.6562 341.911 31.2727C341.911 30.8939 341.857 30.5625 341.748 30.2784C341.639 29.9943 341.479 29.773 341.268 29.6143C341.058 29.4557 340.797 29.3764 340.487 29.3764C340.168 29.3764 339.901 29.4593 339.688 29.625C339.475 29.7907 339.314 30.0168 339.205 30.3033C339.099 30.5897 339.045 30.9129 339.045 31.2727C339.045 31.6373 339.1 31.9652 339.209 32.2564C339.318 32.5476 339.479 32.7784 339.692 32.9489C339.907 33.117 340.172 33.201 340.487 33.201Z" fill="#6F6F6F"/>
</svg>
